<svg width="446" height="157" viewBox="0 0 446 157" fill="none" xmlns="http://www.w3.org/2000/svg">
<path d="M142.52 91.0001C136.803 80.8454 130.616 70.8187 123.96 60.9201C117.304 51.0214 110.221 41.6774 102.712 32.8881V91.0001H83V2.29605H99.256C102.072 5.11205 105.187 8.56805 108.6 12.664C112.013 16.76 115.469 21.1547 118.968 25.8481C122.552 30.4561 126.093 35.2774 129.592 40.312C133.091 45.2614 136.376 50.0401 139.448 54.6481V2.29605H159.288V91.0001H142.52Z" fill="white"/>
<path d="M179.75 91.0001V2.29605H239.654V19.064H199.718V36.472H235.174V52.8561H199.718V74.2321H242.598V91.0001H179.75Z" fill="white"/>
<path d="M310.819 91.0001C308.344 86.0507 305.614 81.0587 302.627 76.0241C299.726 70.9041 296.355 65.6987 292.515 60.4081C291.32 61.944 289.784 64.0774 287.907 66.8081C286.115 69.5387 284.28 72.4401 282.403 75.5121C280.611 78.5841 278.904 81.5281 277.283 84.3441C275.662 87.1601 274.467 89.3787 273.699 91.0001H250.915C254.67 84.0881 259.022 76.8347 263.971 69.2401C269.006 61.6454 274.595 53.5814 280.739 45.048L252.195 2.29605H276.387L293.667 29.944L310.563 2.29605H333.347L305.187 45.3041C312.355 54.6054 318.371 63.224 323.235 71.16C328.099 79.0107 331.939 85.6241 334.755 91.0001H310.819Z" fill="white"/>
<path d="M358.143 46.5841C358.143 50.9361 358.655 54.8614 359.679 58.3601C360.788 61.8587 362.324 64.8881 364.287 67.4481C366.335 69.9227 368.81 71.8427 371.711 73.2081C374.612 74.5734 377.94 75.2561 381.695 75.2561C385.364 75.2561 388.65 74.5734 391.551 73.2081C394.538 71.8427 397.012 69.9227 398.975 67.4481C401.023 64.8881 402.559 61.8587 403.583 58.3601C404.692 54.8614 405.247 50.9361 405.247 46.5841C405.247 42.2321 404.692 38.3067 403.583 34.8081C402.559 31.2241 401.023 28.1947 398.975 25.72C397.012 23.16 394.538 21.1974 391.551 19.832C388.65 18.4667 385.364 17.784 381.695 17.784C377.94 17.784 374.612 18.5094 371.711 19.9601C368.81 21.3254 366.335 23.288 364.287 25.8481C362.324 28.3227 360.788 31.3521 359.679 34.9361C358.655 38.4347 358.143 42.3174 358.143 46.5841ZM425.855 46.5841C425.855 54.1787 424.703 60.8774 422.399 66.6801C420.18 72.3974 417.108 77.2187 413.183 81.1441C409.258 84.9841 404.564 87.8854 399.103 89.8481C393.727 91.8107 387.924 92.7921 381.695 92.7921C375.636 92.7921 369.919 91.8107 364.543 89.8481C359.167 87.8854 354.474 84.9841 350.463 81.1441C346.452 77.2187 343.295 72.3974 340.991 66.6801C338.687 60.8774 337.535 54.1787 337.535 46.5841C337.535 38.9894 338.73 32.3334 341.119 26.6161C343.508 20.8134 346.708 15.9494 350.719 12.024C354.815 8.09871 359.508 5.15471 364.799 3.19205C370.175 1.22938 375.807 0.248047 381.695 0.248047C387.754 0.248047 393.471 1.22938 398.847 3.19205C404.223 5.15471 408.916 8.09871 412.927 12.024C416.938 15.9494 420.095 20.8134 422.399 26.6161C424.703 32.3334 425.855 38.9894 425.855 46.5841Z" fill="white"/>
<path d="M89.7555 152C89.4355 152 89.1795 151.904 88.9875 151.712C88.7955 151.52 88.6995 151.264 88.6995 150.944V119.504C88.6995 119.152 88.7955 118.88 88.9875 118.688C89.1795 118.496 89.4355 118.4 89.7555 118.4H101.42C103.66 118.4 105.596 118.784 107.228 119.552C108.892 120.288 110.172 121.392 111.068 122.864C111.996 124.336 112.46 126.16 112.46 128.336C112.46 130.512 111.996 132.336 111.068 133.808C110.172 135.28 108.892 136.4 107.228 137.168C105.596 137.904 103.66 138.272 101.42 138.272H91.7235V150.944C91.7235 151.264 91.6275 151.52 91.4355 151.712C91.2435 151.904 90.9715 152 90.6195 152H89.7555ZM91.7235 135.392H101.18C103.964 135.392 106.028 134.784 107.372 133.568C108.748 132.352 109.436 130.608 109.436 128.336C109.436 126.064 108.748 124.32 107.372 123.104C106.028 121.888 103.964 121.28 101.18 121.28H91.7235V135.392ZM138.659 152C138.403 152 138.179 151.904 137.987 151.712C137.795 151.52 137.699 151.296 137.699 151.04C137.699 150.88 137.731 150.704 137.795 150.512L149.939 119.36C150.067 119.04 150.227 118.8 150.419 118.64C150.643 118.48 150.947 118.4 151.331 118.4H152.963C153.347 118.4 153.635 118.48 153.827 118.64C154.051 118.8 154.227 119.04 154.355 119.36L166.499 150.512C166.563 150.704 166.595 150.88 166.595 151.04C166.595 151.296 166.499 151.52 166.307 151.712C166.115 151.904 165.891 152 165.635 152H164.675C164.355 152 164.115 151.92 163.955 151.76C163.795 151.568 163.683 151.408 163.619 151.28L160.643 143.6H143.651L140.675 151.28C140.643 151.408 140.531 151.568 140.339 151.76C140.179 151.92 139.939 152 139.619 152H138.659ZM144.803 140.72H159.491L152.147 121.808L144.803 140.72ZM197.334 152C197.014 152 196.758 151.904 196.566 151.712C196.374 151.52 196.278 151.264 196.278 150.944V119.504C196.278 119.152 196.374 118.88 196.566 118.688C196.758 118.496 197.014 118.4 197.334 118.4H208.518C211.878 118.4 214.55 119.2 216.534 120.8C218.55 122.4 219.558 124.832 219.558 128.096C219.558 130.656 218.918 132.704 217.638 134.24C216.358 135.776 214.582 136.816 212.31 137.36L220.038 150.512C220.134 150.704 220.182 150.88 220.182 151.04C220.182 151.296 220.086 151.52 219.894 151.712C219.702 151.904 219.478 152 219.222 152H218.646C218.134 152 217.75 151.872 217.494 151.616C217.238 151.328 217.014 151.024 216.822 150.704L209.19 137.792H199.302V150.944C199.302 151.264 199.206 151.52 199.014 151.712C198.822 151.904 198.55 152 198.198 152H197.334ZM199.302 134.912H208.278C211.062 134.912 213.126 134.352 214.47 133.232C215.846 132.08 216.534 130.368 216.534 128.096C216.534 125.824 215.846 124.128 214.47 123.008C213.126 121.856 211.062 121.28 208.278 121.28H199.302V134.912ZM252.037 152C251.717 152 251.461 151.904 251.269 151.712C251.077 151.52 250.981 151.264 250.981 150.944V119.504C250.981 119.152 251.077 118.88 251.269 118.688C251.461 118.496 251.717 118.4 252.037 118.4H252.901C253.253 118.4 253.525 118.496 253.717 118.688C253.909 118.88 254.005 119.152 254.005 119.504V131.984L268.549 119.12C268.677 119.024 268.885 118.88 269.173 118.688C269.461 118.496 269.861 118.4 270.373 118.4H271.141C271.397 118.4 271.621 118.496 271.813 118.688C272.005 118.88 272.101 119.104 272.101 119.36C272.101 119.616 272.021 119.824 271.861 119.984L255.589 134.48L272.869 150.368C273.061 150.56 273.157 150.784 273.157 151.04C273.157 151.296 273.061 151.52 272.869 151.712C272.677 151.904 272.453 152 272.197 152H271.381C270.869 152 270.469 151.904 270.181 151.712C269.893 151.52 269.685 151.376 269.557 151.28L254.005 137.072V150.944C254.005 151.264 253.909 151.52 253.717 151.712C253.525 151.904 253.253 152 252.901 152H252.037ZM303.646 152C303.326 152 303.07 151.904 302.878 151.712C302.686 151.52 302.59 151.264 302.59 150.944V119.456C302.59 119.136 302.686 118.88 302.878 118.688C303.07 118.496 303.326 118.4 303.646 118.4H304.558C304.878 118.4 305.134 118.496 305.326 118.688C305.518 118.88 305.614 119.136 305.614 119.456V150.944C305.614 151.264 305.518 151.52 305.326 151.712C305.134 151.904 304.878 152 304.558 152H303.646ZM339.693 152C339.373 152 339.117 151.904 338.925 151.712C338.733 151.52 338.637 151.264 338.637 150.944V119.504C338.637 119.152 338.733 118.88 338.925 118.688C339.117 118.496 339.373 118.4 339.693 118.4H340.701C341.021 118.4 341.261 118.48 341.421 118.64C341.581 118.8 341.677 118.912 341.709 118.976L359.421 146.048V119.504C359.421 119.152 359.517 118.88 359.709 118.688C359.901 118.496 360.157 118.4 360.477 118.4H361.341C361.693 118.4 361.965 118.496 362.157 118.688C362.349 118.88 362.445 119.152 362.445 119.504V150.896C362.445 151.216 362.349 151.488 362.157 151.712C361.965 151.904 361.709 152 361.389 152H360.333C360.013 152 359.773 151.92 359.613 151.76C359.485 151.6 359.389 151.488 359.325 151.424L341.661 124.448V150.944C341.661 151.264 341.565 151.52 341.373 151.712C341.181 151.904 340.909 152 340.557 152H339.693ZM406.97 152.48C404.218 152.48 401.898 151.952 400.01 150.896C398.154 149.808 396.73 148.304 395.738 146.384C394.778 144.464 394.25 142.256 394.154 139.76C394.122 138.32 394.105 136.8 394.105 135.2C394.105 133.6 394.122 132.08 394.154 130.64C394.25 128.112 394.778 125.904 395.738 124.016C396.73 122.096 398.17 120.608 400.058 119.552C401.946 118.464 404.25 117.92 406.97 117.92C409.178 117.92 411.066 118.256 412.634 118.928C414.202 119.568 415.482 120.384 416.474 121.376C417.466 122.336 418.202 123.312 418.682 124.304C419.162 125.296 419.418 126.128 419.45 126.8C419.482 127.088 419.402 127.328 419.21 127.52C419.018 127.68 418.762 127.76 418.442 127.76H417.385C417.098 127.76 416.89 127.696 416.762 127.568C416.634 127.408 416.506 127.152 416.378 126.8C416.058 125.808 415.514 124.864 414.746 123.968C414.01 123.04 413.002 122.288 411.722 121.712C410.474 121.104 408.89 120.8 406.97 120.8C404.122 120.8 401.802 121.584 400.01 123.152C398.25 124.688 397.306 127.264 397.178 130.88C397.082 133.76 397.082 136.64 397.178 139.52C397.306 143.104 398.25 145.68 400.01 147.248C401.802 148.816 404.122 149.6 406.97 149.6C408.858 149.6 410.554 149.248 412.058 148.544C413.562 147.808 414.746 146.704 415.609 145.232C416.474 143.728 416.906 141.824 416.906 139.52V137.072H408.554C408.234 137.072 407.978 136.976 407.786 136.784C407.594 136.56 407.498 136.288 407.498 135.968V135.296C407.498 134.944 407.594 134.672 407.786 134.48C407.978 134.288 408.234 134.192 408.554 134.192H418.826C419.178 134.192 419.45 134.288 419.642 134.48C419.834 134.672 419.93 134.944 419.93 135.296V139.52C419.93 142.08 419.418 144.336 418.394 146.288C417.402 148.24 415.93 149.76 413.978 150.848C412.058 151.936 409.722 152.48 406.97 152.48Z" fill="white"/>
<path d="M81 105H427" stroke="#FF9800" stroke-width="3" stroke-linecap="round"/>
<path d="M433.893 36.8074C433.904 36.8483 433.704 36.1557 433.714 36.1969L439.481 58.8157L439.845 60.3061C440.363 62.0325 440.039 63.7898 438.805 64.3427C437.571 64.8955 436.067 63.9681 435.425 62.2789L435.252 61.7966L430.912 51.0163C430.909 51.0276 430.905 51.0331 430.902 51.0444C429.849 53.9454 428.47 57.4107 426.681 61.1758C424.174 66.4134 420.873 72.2358 416.548 77.5506C412.241 82.8515 406.84 87.6211 400.581 90.355C399.793 90.7004 398.966 90.9938 398.164 91.3096C397.359 91.6145 396.601 91.7842 395.818 92.0276L395.183 92.2137L394.571 92.3337L393.351 92.5709C392.541 92.7269 391.732 92.8836 390.927 93.0393C390.131 93.2262 389.306 93.2818 388.492 93.3548C387.678 93.4275 386.868 93.5007 386.063 93.5737C385.265 93.6758 384.452 93.6701 383.644 93.6525C382.84 93.6457 382.041 93.6388 381.248 93.6315C374.889 93.3996 368.867 91.914 363.855 89.7938C358.83 87.7053 354.81 85.1489 352.1 83.1501C349.383 81.1445 347.5 78.0001 347.5 78.0001C347.5 78.0001 349.799 80.9284 352.225 82.7645C354.991 84.5043 359.058 86.6631 364.014 88.2409C368.961 89.8539 374.796 90.7297 380.815 90.3541C381.563 90.2862 382.32 90.2288 383.08 90.159C383.841 90.1006 384.61 90.0516 385.359 89.8758C386.112 89.7297 386.882 89.6258 387.642 89.4789C388.403 89.3334 394.276 87.2778 394.276 87.2778C395.011 86.9645 395.818 86.7049 396.5 86.3557C397.179 85.9974 397.886 85.7676 398.559 85.3873C404.029 82.3086 408.623 77.4871 412.229 72.1811C415.846 66.8632 418.541 61.144 420.538 56.0106C421.857 52.5916 422.874 49.4579 423.649 46.7831L415.961 50.3524L415.614 50.5155C414.386 51.0843 412.878 50.241 412.223 48.557C411.569 46.8731 411.935 44.9379 413.219 44.5532L413.172 44.5671L413.137 44.4493L427.397 34.0353C428.467 32.6803 430.287 32.4578 431.865 33.6802C432.737 34.3545 433.389 35.3661 433.762 36.4616C433.804 36.5772 433.857 36.6883 433.893 36.8074Z" fill="#2196F3"/>
<path fill-rule="evenodd" clip-rule="evenodd" d="M65 32.5C65 49.4872 51.9671 63.4307 35.3549 64.8764C34.8271 64.9223 34.4118 65.3586 34.4118 65.8884V151.941C34.4118 152.493 34.8595 152.941 35.4118 152.941H41.0588C41.6111 152.941 42.0588 153.389 42.0588 153.941V155.765C42.0588 156.317 41.6111 156.765 41.0588 156.765H34.4118H30.5882H23.9412C23.3889 156.765 22.9412 156.317 22.9412 155.765V153.941C22.9412 153.389 23.3889 152.941 23.9412 152.941H29.5882C30.1405 152.941 30.5882 152.493 30.5882 151.941V65.8884C30.5882 65.3586 30.1729 64.9223 29.6451 64.8764C13.0329 63.4307 0 49.4872 0 32.5C0 14.5508 14.5508 0 32.5 0C50.4492 0 65 14.5508 65 32.5ZM63.0882 32.5C63.0882 49.3935 49.3935 63.0882 32.5 63.0882C15.6065 63.0882 1.91176 49.3935 1.91176 32.5C1.91176 15.6065 15.6065 1.91176 32.5 1.91176C49.3935 1.91176 63.0882 15.6065 63.0882 32.5ZM32.5 61.1765C48.3376 61.1765 61.1765 48.3376 61.1765 32.5C61.1765 16.6624 48.3376 3.82353 32.5 3.82353C16.6624 3.82353 3.82353 16.6624 3.82353 32.5C3.82353 48.3376 16.6624 61.1765 32.5 61.1765ZM24.4952 15.4679C23.9429 15.4679 23.4952 15.9156 23.4952 16.4679V50.6176C23.4952 51.1699 23.9429 51.6176 24.4952 51.6176H26.8726C27.4249 51.6176 27.8726 51.1699 27.8726 50.6176V39.4146C27.8726 38.8623 28.3203 38.4146 28.8726 38.4146H35.7804C38.5928 38.4146 40.8993 37.9026 42.6996 36.8789C44.5001 35.8433 45.8298 34.4548 46.6889 32.7132C47.5597 30.9715 47.995 29.0359 47.995 26.906C47.995 24.7761 47.5597 22.8462 46.6889 21.1164C45.8181 19.3864 44.4766 18.0155 42.6645 17.0036C40.864 15.9799 38.5458 15.4679 35.7099 15.4679H24.4952ZM27.8726 33.5312C27.8726 34.0835 28.3203 34.5312 28.8726 34.5312H35.6391C37.5809 34.5312 39.1399 34.1959 40.3168 33.5251C41.4935 32.8544 42.3467 31.9483 42.8763 30.8067C43.4175 29.6536 43.6882 28.3534 43.6882 26.906C43.6882 25.4586 43.4175 24.1641 42.8763 23.0226C42.3467 21.8811 41.4876 20.9868 40.299 20.3396C39.1107 19.6807 37.5337 19.3513 35.5686 19.3513H28.8726C28.3203 19.3513 27.8726 19.799 27.8726 20.3513V33.5312Z" fill="#2196F3"/>
</svg>
